<svg xmlns="http://www.w3.org/2000/svg" viewBox="0 0 1280 720" width="1280" height="720" role="img">
  <defs>
    <linearGradient id="bg" x1="0" y1="0" x2="1" y2="1">
      <stop offset="0%" stop-color="#2E4E78"/>
      <stop offset="100%" stop-color="#152743"/>
    </linearGradient>
    <radialGradient id="glow" cx="50%" cy="30%" r="65%">
      <stop offset="0%" stop-color="#6FA8DC" stop-opacity="0.30"/>
      <stop offset="100%" stop-color="#6FA8DC" stop-opacity="0"/>
    </radialGradient>
    <filter id="soft" x="-20%" y="-20%" width="140%" height="140%">
      <feDropShadow dx="0" dy="18" stdDeviation="22" flood-color="#152743" flood-opacity="0.45"/>
    </filter>
    
  </defs>
  <rect width="1280" height="720" fill="url(#bg)"/>
  <rect width="1280" height="720" fill="url(#glow)"/>
<rect x="380" y="120" width="520" height="480" rx="20" fill="#F4F3EF" opacity="0.18" />
<rect x="380" y="120" width="520" height="480" rx="20" fill="none" opacity="1.0" stroke="#F4F3EF" stroke-opacity="0.5" stroke-width="3"/>
<rect x="404" y="144.0" width="472" height="60.333333333333336" rx="10" fill="#F4F3EF" opacity="0.92" filter="url(#soft)"/>
<circle cx="432" cy="174.16666666666666" r="8" fill="#E3B872" opacity="0.95"/>
<circle cx="458" cy="174.16666666666666" r="8" fill="#1F3A5F" opacity="0.25"/>
<line x1="686" y1="158.0" x2="686" y2="190.33333333333334" stroke="#1F3A5F" stroke-width="4" stroke-linecap="round" opacity="0.25"/>
<line x1="712" y1="158.0" x2="712" y2="190.33333333333334" stroke="#1F3A5F" stroke-width="4" stroke-linecap="round" opacity="0.25"/>
<line x1="738" y1="158.0" x2="738" y2="190.33333333333334" stroke="#1F3A5F" stroke-width="4" stroke-linecap="round" opacity="0.25"/>
<line x1="764" y1="158.0" x2="764" y2="190.33333333333334" stroke="#1F3A5F" stroke-width="4" stroke-linecap="round" opacity="0.25"/>
<line x1="790" y1="158.0" x2="790" y2="190.33333333333334" stroke="#1F3A5F" stroke-width="4" stroke-linecap="round" opacity="0.25"/>
<rect x="404" y="218.33333333333334" width="472" height="60.333333333333336" rx="10" fill="#F4F3EF" opacity="0.92" filter="url(#soft)"/>
<circle cx="432" cy="248.5" r="8" fill="#6FA8DC" opacity="0.95"/>
<circle cx="458" cy="248.5" r="8" fill="#1F3A5F" opacity="0.25"/>
<line x1="686" y1="232.33333333333334" x2="686" y2="264.6666666666667" stroke="#1F3A5F" stroke-width="4" stroke-linecap="round" opacity="0.25"/>
<line x1="712" y1="232.33333333333334" x2="712" y2="264.6666666666667" stroke="#1F3A5F" stroke-width="4" stroke-linecap="round" opacity="0.25"/>
<line x1="738" y1="232.33333333333334" x2="738" y2="264.6666666666667" stroke="#1F3A5F" stroke-width="4" stroke-linecap="round" opacity="0.25"/>
<line x1="764" y1="232.33333333333334" x2="764" y2="264.6666666666667" stroke="#1F3A5F" stroke-width="4" stroke-linecap="round" opacity="0.25"/>
<line x1="790" y1="232.33333333333334" x2="790" y2="264.6666666666667" stroke="#1F3A5F" stroke-width="4" stroke-linecap="round" opacity="0.25"/>
<rect x="404" y="292.6666666666667" width="472" height="60.333333333333336" rx="10" fill="#F4F3EF" opacity="0.92" filter="url(#soft)"/>
<circle cx="432" cy="322.83333333333337" r="8" fill="#6FA8DC" opacity="0.95"/>
<circle cx="458" cy="322.83333333333337" r="8" fill="#1F3A5F" opacity="0.25"/>
<line x1="686" y1="306.6666666666667" x2="686" y2="339.0" stroke="#1F3A5F" stroke-width="4" stroke-linecap="round" opacity="0.25"/>
<line x1="712" y1="306.6666666666667" x2="712" y2="339.0" stroke="#1F3A5F" stroke-width="4" stroke-linecap="round" opacity="0.25"/>
<line x1="738" y1="306.6666666666667" x2="738" y2="339.0" stroke="#1F3A5F" stroke-width="4" stroke-linecap="round" opacity="0.25"/>
<line x1="764" y1="306.6666666666667" x2="764" y2="339.0" stroke="#1F3A5F" stroke-width="4" stroke-linecap="round" opacity="0.25"/>
<line x1="790" y1="306.6666666666667" x2="790" y2="339.0" stroke="#1F3A5F" stroke-width="4" stroke-linecap="round" opacity="0.25"/>
<rect x="404" y="367.0" width="472" height="60.333333333333336" rx="10" fill="#F4F3EF" opacity="0.92" filter="url(#soft)"/>
<circle cx="432" cy="397.1666666666667" r="8" fill="#E3B872" opacity="0.95"/>
<circle cx="458" cy="397.1666666666667" r="8" fill="#1F3A5F" opacity="0.25"/>
<line x1="686" y1="381.0" x2="686" y2="413.3333333333333" stroke="#1F3A5F" stroke-width="4" stroke-linecap="round" opacity="0.25"/>
<line x1="712" y1="381.0" x2="712" y2="413.3333333333333" stroke="#1F3A5F" stroke-width="4" stroke-linecap="round" opacity="0.25"/>
<line x1="738" y1="381.0" x2="738" y2="413.3333333333333" stroke="#1F3A5F" stroke-width="4" stroke-linecap="round" opacity="0.25"/>
<line x1="764" y1="381.0" x2="764" y2="413.3333333333333" stroke="#1F3A5F" stroke-width="4" stroke-linecap="round" opacity="0.25"/>
<line x1="790" y1="381.0" x2="790" y2="413.3333333333333" stroke="#1F3A5F" stroke-width="4" stroke-linecap="round" opacity="0.25"/>
<rect x="404" y="441.33333333333337" width="472" height="60.333333333333336" rx="10" fill="#F4F3EF" opacity="0.92" filter="url(#soft)"/>
<circle cx="432" cy="471.50000000000006" r="8" fill="#6FA8DC" opacity="0.95"/>
<circle cx="458" cy="471.50000000000006" r="8" fill="#1F3A5F" opacity="0.25"/>
<line x1="686" y1="455.33333333333337" x2="686" y2="487.6666666666667" stroke="#1F3A5F" stroke-width="4" stroke-linecap="round" opacity="0.25"/>
<line x1="712" y1="455.33333333333337" x2="712" y2="487.6666666666667" stroke="#1F3A5F" stroke-width="4" stroke-linecap="round" opacity="0.25"/>
<line x1="738" y1="455.33333333333337" x2="738" y2="487.6666666666667" stroke="#1F3A5F" stroke-width="4" stroke-linecap="round" opacity="0.25"/>
<line x1="764" y1="455.33333333333337" x2="764" y2="487.6666666666667" stroke="#1F3A5F" stroke-width="4" stroke-linecap="round" opacity="0.25"/>
<line x1="790" y1="455.33333333333337" x2="790" y2="487.6666666666667" stroke="#1F3A5F" stroke-width="4" stroke-linecap="round" opacity="0.25"/>
<rect x="404" y="515.6666666666667" width="472" height="60.333333333333336" rx="10" fill="#F4F3EF" opacity="0.92" filter="url(#soft)"/>
<circle cx="432" cy="545.8333333333334" r="8" fill="#6FA8DC" opacity="0.95"/>
<circle cx="458" cy="545.8333333333334" r="8" fill="#1F3A5F" opacity="0.25"/>
<line x1="686" y1="529.6666666666667" x2="686" y2="562.0000000000001" stroke="#1F3A5F" stroke-width="4" stroke-linecap="round" opacity="0.25"/>
<line x1="712" y1="529.6666666666667" x2="712" y2="562.0000000000001" stroke="#1F3A5F" stroke-width="4" stroke-linecap="round" opacity="0.25"/>
<line x1="738" y1="529.6666666666667" x2="738" y2="562.0000000000001" stroke="#1F3A5F" stroke-width="4" stroke-linecap="round" opacity="0.25"/>
<line x1="764" y1="529.6666666666667" x2="764" y2="562.0000000000001" stroke="#1F3A5F" stroke-width="4" stroke-linecap="round" opacity="0.25"/>
<line x1="790" y1="529.6666666666667" x2="790" y2="562.0000000000001" stroke="#1F3A5F" stroke-width="4" stroke-linecap="round" opacity="0.25"/>
</svg>
